<?xml version="1.0" encoding="UTF-8"?>
<svg width="178px" height="60px" viewBox="0 0 178 60" version="1.1" xmlns="http://www.w3.org/2000/svg" xmlns:xlink="http://www.w3.org/1999/xlink">
    <!-- Generator: Sketch 64 (93537) - https://sketch.com -->
    <title>logo</title>
    <desc>Created with Sketch.</desc>
    <g id="Page-1-Copy" stroke="none" stroke-width="1" fill="none" fill-rule="evenodd">
        <g id="Desktop-HD-Copy" transform="translate(-145.000000, -122.000000)" fill="#FF0215">
            <g id="logo" transform="translate(145.500000, 122.000000)">
                <polygon id="Path-6-Copy-2" points="-1.65563356e-14 60 10.201045 60 21.2506892 32.4226895 20.7001804 60 30.9923817 60 56.8751253 4.08152476e-13 41.3810019 4.01491138e-13 30.2591845 27.9455067 31.6462635 4.01491138e-13 25.2215317 4.01491138e-13 14.4803153 27.9455067 15.4061623 4.01491138e-13 -1.65563356e-14 4.01491138e-13"></polygon>
                <polygon id="Path-7-Copy" points="42.5686502 60 57.0453944 60 82.928138 4.01491138e-13 68.4513938 4.01491138e-13"></polygon>
                <path d="M120.896935,-2.09610107e-13 L127.984334,8.7612339 L118.212228,31.4144089 L103.802033,39.9672822 L91.1597079,39.967 L82.5184521,60 L68.0417079,60 L93.9244515,-2.09610107e-13 L120.896935,-2.09610107e-13 Z M111.942708,11.403 L103.481708,11.403 L96.0787079,28.563 L104.539708,28.563 L111.942708,11.403 Z" id="Shape"></path>
                <polygon id="Path" points="177.325361 4.01456646e-13 172.467559 11.259 149.998559 11.259 144.342559 24.37 166.812559 24.37 161.955559 35.629 139.485559 35.629 133.829559 48.74 156.299559 48.74 151.442559 59.999 114.496559 60 140.379302 3.97903932e-13"></polygon>
            </g>
        </g>
    </g>
</svg>