<?xml version="1.0" encoding="UTF-8"?>
<svg width="197px" height="66px" viewBox="0 0 197 66" version="1.1" xmlns="http://www.w3.org/2000/svg" xmlns:xlink="http://www.w3.org/1999/xlink">
    <!-- Generator: Sketch 64 (93537) - https://sketch.com -->
    <title>@1xGroup Copy</title>
    <desc>Created with Sketch.</desc>
    <g id="Page-1-Copy" stroke="none" stroke-width="1" fill="none" fill-rule="evenodd">
        <g id="Desktop-HD-Copy" transform="translate(-145.000000, -45.000000)" fill="#FF0215">
            <g id="Group-Copy" transform="translate(145.500000, 45.000000)">
                <polygon id="Path-Copy" points="0 0 0 65.9169871 11.24049 65.9169871 23.2132485 36.217257 23.2132485 65.9169871 34.4280923 65.9169871 62.6531618 0 45.6199894 0 33.371196 30.5285095 34.8287309 0 27.7647865 0 16.1551252 30.5285095 17.2039226 0"></polygon>
                <polygon id="Path-2-Copy" points="47.7816999 65.9169871 64.2115101 65.9169871 93.3463473 0 76.8652446 0"></polygon>
                <path d="M136.734571,0 L144.691664,9.5039676 L134.170619,34.3869233 L118.678923,44.0083238 L104.077421,44.0083238 L94.9196785,65.9169871 L78.7875,65.9169871 L106.370063,0 L136.734571,0 Z M126.706205,12.5423757 L117.379737,12.5423757 L109.542439,31.3198319 L118.678923,31.3198319 L126.706205,12.5423757 Z" id="Combined-Shape"></path>
                <path d="M196.143101,-0.000373828125 L191.245101,12.5766262 L169.606205,12.5767956 L163.791926,26.3488424 L185.882101,26.3486262 L180.951101,39.0116262 L158.271904,39.0120255 L152.180915,53.3590887 L175.363101,53.3586262 L170.473101,65.9166262 L129.932101,65.9169871 L159.13678,2.84218179e-15 L196.143101,-0.000373828125 Z" id="Combined-Shape"></path>
            </g>
        </g>
    </g>
</svg>