<?xml version="1.0" encoding="UTF-8"?>
<svg width="272px" height="180px" viewBox="0 0 272 180" version="1.1" xmlns="http://www.w3.org/2000/svg" xmlns:xlink="http://www.w3.org/1999/xlink">
    <!-- Generator: Sketch 64 (93537) - https://sketch.com -->
    <title>Group</title>
    <desc>Created with Sketch.</desc>
    <g id="Page-1-Copy" stroke="none" stroke-width="1" fill="none" fill-rule="evenodd">
        <g id="Desktop-HD-Copy" transform="translate(-578.000000, -3946.000000)" fill="#FFFFFF">
            <g id="Group" transform="translate(578.000000, 3946.500000)">
                <path d="M25.1883191,72.0422234 C21.3135319,65.2242447 6.38980851,74.8724362 6.59757447,85.2473298 C6.7536383,92.6110532 11.0918298,91.5722234 16.3597021,89.4505213 C21.3681064,87.3958404 26.3774681,85.0309468 26.3784255,92.5335 C26.3803404,102.144351 11.8175745,111.301372 7.73597872,105.454245 L7.11651064,105.762543 C10.8361915,112.780628 26.9471489,102.792543 26.9461915,92.2520106 C26.945234,84.5637128 21.7300213,86.5963723 16.4621489,88.7180745 C11.4010851,90.7976489 7.218,91.8833936 7.21704255,84.9390319 C7.16438298,75.2314787 20.6423617,66.5503085 24.5161915,72.3763723 L25.1883191,72.0422234 Z M22.2470426,94.586266 C22.2460851,91.5482872 19.2511915,92.5411596 15.6358723,94.0883936 C7.78768085,97.3063723 2.62321277,96.6486064 2.51885106,87.2742447 C2.2067234,68.7036064 30.2982128,54.7459468 30.0942766,73.5731809 C26.8408723,75.1903085 24.4654468,76.369883 21.3154468,77.9353085 C21.3144894,72.1686064 11.6059787,77.4891383 11.2967234,82.7895638 C11.0908723,86.1779681 13.7765106,85.5259468 17.0299149,84.3435 C24.2088511,81.7066915 31.2317234,79.3331809 31.2326809,90.1839255 C31.2345957,108.412755 1.79980851,123.533713 2.00374468,104.334032 C5.10204255,102.795415 7.78768085,101.460734 10.9376809,99.8953085 C10.9386383,105.414032 22.2470426,99.6703085 22.2470426,94.586266 L22.2470426,94.586266 Z" id="Fill-36"></path>
                <path d="M48.1749894,90.5090745 C48.1730745,79.1010957 48.1194574,67.8415213 48.0677553,56.5206702 L57.7753085,51.6970532 L57.7753085,51.1388617 L37.8939255,61.0177979 L37.8939255,61.5759894 L47.6541383,56.7265213 L47.6579681,90.7656702 L48.1749894,90.5090745 Z M34.4337128,68.0062021 C34.4337128,64.6580106 34.4327553,61.3720532 34.4327553,58.0860957 L61.286266,44.743117 C61.2872234,48.0300319 61.2872234,51.3150319 61.2881809,54.6641809 L52.4576489,59.0521596 L52.4624362,92.533117 C49.414883,94.0468404 46.3682872,95.5605638 43.3216915,97.0742872 L43.3169043,63.5933298 L34.4337128,68.0062021 Z" id="Fill-37"></path>
                <path d="M82.1040319,62.3653085 L74.5641383,66.1117979 L78.2809468,54.2825426 L82.1040319,62.3653085 Z M68.5753085,73.489883 L88.1464787,63.7650957 L78.3316915,43.4049894 L78.2790319,43.4317979 L68.5753085,73.489883 Z M78.4341383,41.989883 L78.124883,42.1440319 L65.2711596,81.9527553 L65.9423298,81.6195638 L68.3685,74.2749894 L88.3532872,64.3453085 L90.7296702,69.3029681 L91.4008404,68.9697766 L78.4341383,41.989883 Z M85.4617979,70.6797766 L71.2092447,77.7610532 L69.0923298,84.2697766 L60.0559468,88.7602021 L60.0549894,87.1478617 L76.316266,36.7181809 L80.2925426,34.7420106 L96.6160532,68.9822234 L96.6170106,70.5945638 L87.5796702,75.0840319 L85.4617979,70.6797766 Z" id="Fill-38"></path>
                <path d="M110.818532,43.8820851 L110.820447,59.3821915 L111.38917,59.1007021 L111.386298,43.5996383 L121.505553,18.9779362 L120.833426,19.3111277 L111.128745,42.984 L101.36566,28.9842128 L100.693532,29.3183617 L110.818532,43.8820851 Z M115.67566,61.1247447 L106.534915,65.6668723 L106.532043,47.4380426 L94.3935319,29.9684681 L94.3935319,28.2938936 L104.360553,23.3419787 L110.920021,34.5297447 L111.281936,34.3507021 L117.838532,16.6455957 L127.856298,11.6678298 L127.856298,13.3424043 L115.672787,42.8959149 L115.67566,61.1247447 Z" id="Fill-39"></path>
                <path d="M22.0490426,152.834745 L14.5091489,156.582191 L18.2259574,144.751979 L22.0490426,152.834745 Z M8.5193617,163.959319 L28.0905319,154.235489 L18.2767021,133.875383 L18.2240426,133.901234 L8.5193617,163.959319 Z M18.3791489,132.460277 L18.0689362,132.614426 L5.21521277,172.423149 L5.88638298,172.089 L8.31255319,164.744426 L28.2973404,154.814745 L30.6737234,159.773362 L31.3448936,159.439213 L18.3791489,132.460277 Z M25.4058511,161.151128 L11.1542553,168.232404 L9.03638298,174.74017 L-1.46265978e-13,179.229638 L-1.46265978e-13,177.618255 L16.2612766,127.187617 L20.2375532,125.211447 L36.5610638,159.452617 L36.5610638,161.064957 L27.5246809,165.554426 L25.4058511,161.151128 Z" id="Fill-40"></path>
                <path d="M72.0924894,139.131287 L72.0886596,110.361926 L71.3657872,110.720968 L58.8194043,132.829372 L46.4233404,123.11416 L45.7521702,123.447351 L45.756,152.216713 L46.2720638,151.960117 L46.268234,123.996926 L58.8203617,133.759053 L71.5735532,111.424691 L71.5764255,139.387883 L72.0924894,139.131287 Z M73.2241915,99.3206489 L76.5283404,97.6776702 L76.5340851,141.203202 L67.0840851,145.898521 L67.0821702,126.554266 L59.3881277,140.049479 L58.356,140.561713 L50.7117447,134.687777 L50.7136596,154.032032 C47.5636596,155.597457 44.4136596,157.162883 41.2636596,158.728309 L41.2579149,115.202777 L44.6654681,113.509053 L58.8184468,125.326819 L73.2241915,99.3206489 Z" id="Fill-41"></path>
                <path d="M104.060777,112.087149 L96.520883,115.832681 L100.237691,104.003426 L104.060777,112.087149 Z M90.5320532,123.210766 L110.103223,113.486936 L100.288436,93.1268298 L100.236734,93.1526809 L90.5320532,123.210766 Z M100.390883,91.7117234 L100.08067,91.8658723 L87.2269468,131.673638 L87.898117,131.340447 L90.3242872,123.995872 L110.309074,114.066191 L112.686415,119.024809 L113.357585,118.69066 L100.390883,91.7117234 Z M107.418543,120.402574 L93.1659894,127.483851 L91.0490745,133.991617 L82.011734,138.481085 L82.011734,136.869702 L98.2730106,86.4390638 L102.249287,84.4628936 L118.572798,118.704064 L118.572798,120.316404 L109.536415,124.805872 L107.418543,120.402574 Z" id="Fill-42"></path>
                <path d="M131.072649,109.951564 C131.071691,98.5426277 131.017117,87.2840106 130.964457,75.9622021 L140.672968,71.1385851 L140.672968,70.5813511 L120.791585,80.4602872 L120.791585,81.0175213 L130.551798,76.1680532 L130.555628,110.20816 L131.072649,109.951564 Z M117.33233,87.4486915 C117.331372,84.1005 117.331372,80.8145426 117.330415,77.5285851 L144.183926,64.1856064 C144.184883,67.4725213 144.184883,70.7575213 144.18584,74.1066702 L135.355309,78.4946489 L135.359138,111.975606 C132.312543,113.48933 129.265947,115.003053 126.219351,116.516777 L126.214564,83.0358191 L117.33233,87.4486915 Z" id="Fill-43"></path>
                <path d="M154.262202,97.9956383 L169.444436,90.4519149 L169.444436,89.8324468 L154.830926,97.092766 C154.829968,91.4505319 154.829011,85.8082979 154.828053,80.1651064 L167.944117,73.6487234 L167.944117,73.0292553 L154.828053,79.5456383 L154.826138,64.1068085 L168.975287,57.077234 L168.975287,56.4568085 L154.257415,63.7697872 C154.25933,75.1164894 154.260287,86.5254255 154.262202,97.9956383 M172.487202,60.0443617 C167.11784,62.712766 164.432202,64.0464894 159.11167,66.69 L159.112628,72.8281915 L171.403372,66.7215957 C171.403372,70.0085106 171.40433,73.2935106 171.40433,76.5804255 L159.113585,82.6870213 C159.113585,85.2290426 159.114543,87.7088298 159.114543,90.3130851 C164.435074,87.6695745 167.532415,86.13 172.954436,83.4367021 C172.955394,86.661383 172.955394,90.008617 172.956351,93.2955319 C164.487734,97.5025532 158.291138,100.581702 149.925926,104.738936 C149.924011,90.2307447 149.921138,75.7215957 149.919223,61.3369149 C158.284436,57.1796809 164.01667,54.332234 172.485287,50.1242553 C172.486245,53.3479787 172.486245,56.6961702 172.487202,60.0443617" id="Fill-44"></path>
                <path d="M205.128479,62.6761915 L205.125606,38.0611915 L204.55784,38.3426809 L204.560713,62.9576809 C204.56167,69.4070426 199.811777,75.2388511 194.905819,77.6765106 C189.999862,80.1141702 185.247096,79.0035319 185.246138,72.5541702 L185.243266,47.9391702 L184.676457,48.221617 L184.67933,72.836617 C184.680287,79.5942766 189.742309,80.9251277 194.905819,78.3591702 C200.070287,75.7932128 205.129436,69.4348085 205.128479,62.6761915 M200.377628,65.0362979 L200.373798,36.2669362 C203.316989,34.8049149 206.262096,33.3419362 209.152628,31.905766 L209.157415,60.8608723 C209.158372,70.4094894 202.343266,79.3137447 194.906777,83.0085319 C187.521989,86.6784255 180.653266,84.573 180.652309,75.024383 L180.647521,46.0692766 C183.539011,44.6321489 186.482202,43.1691702 189.374649,41.7320426 L189.378479,70.5014043 C189.379436,74.0362979 192.220181,74.3608723 194.904862,73.0271489 C197.5905,71.6924681 200.378585,68.5711915 200.377628,65.0362979" id="Fill-45"></path>
                <path d="M233.99684,29.4830426 C231.828223,30.4988936 229.556202,31.689 227.387585,32.7670851 C227.387585,36.3019787 227.388543,40.0216596 227.388543,43.4933617 L233.997798,40.2093191 C239.00716,37.7199574 239.264713,26.9285745 233.99684,29.4830426 L233.99684,29.4830426 Z M234.051415,44.8347447 L222.948862,50.3505957 L222.945989,30.3236809 L234.048543,24.8078298 C244.789181,19.4700638 244.94716,39.420383 234.051415,44.8347447 L234.051415,44.8347447 Z M234.051415,45.5164468 C234.41333,45.3364468 234.774287,45.0951702 235.0845,44.9410213 L241.798117,54.9970851 L242.418543,54.6897447 L237.202372,47.051234 L235.652266,44.5341064 C245.411521,37.7630426 245.099394,18.7577234 234.048543,24.2496383 L222.428968,30.0220851 L222.433755,64.5571915 L222.950777,64.3005957 L222.948862,51.0322979 L234.051415,45.5164468 Z M248.718543,54.0396383 L248.7195,55.6519787 L238.391521,60.7838936 L232.193011,51.0897447 L227.390457,53.4766596 L227.392372,66.249 C224.293117,67.7885745 221.143117,69.354 218.148223,70.8418723 C218.146309,56.3949574 218.143436,41.9480426 218.141521,27.4398511 C223.357691,24.8480426 228.728011,22.1796383 233.994926,19.5629362 C248.196734,12.5687872 250.78184,31.8086809 241.642053,43.7911277 L248.718543,54.0396383 Z" id="Fill-46"></path>
                <path d="M266.646255,29.1973404 L266.643383,6.68968085 L266.179021,6.92042553 L266.181894,29.4280851 L266.646255,29.1973404 Z M268.766043,39.7388298 C268.766043,38.1887234 267.731043,37.71 266.440404,38.3514894 C265.200511,38.9680851 264.116681,40.4980851 264.116681,42.0481915 C264.116681,43.5992553 265.201468,43.9908511 266.441362,43.3742553 C267.732,42.732766 268.766043,41.2889362 268.766043,39.7388298 L268.766043,39.7388298 Z M269.230404,39.5080851 C269.229447,37.5855319 267.988596,37.0867021 266.440404,37.8555319 C264.891255,38.6262766 263.651362,40.3573404 263.652319,42.2798936 C263.652319,44.2014894 264.892213,44.7012766 266.441362,43.9314894 C267.989553,43.1617021 269.230404,41.4306383 269.230404,39.5080851 L269.230404,39.5080851 Z M261.380298,43.4087234 C261.37934,39.9370213 263.59966,36.6003191 266.440404,35.1890426 C269.280191,33.7787234 271.500511,34.9075532 271.501468,38.3792553 C271.501468,41.7896809 269.282106,45.1244681 266.442319,46.5357447 C263.601574,47.9470213 261.380298,46.8181915 261.380298,43.4087234 L261.380298,43.4087234 Z M261.168702,5.13191489 L271.495723,-1.088491e-13 L270.933702,31.3448936 L261.948064,35.8094681 L261.168702,5.13191489 Z" id="Fill-47"></path>
            </g>
        </g>
    </g>
</svg>